<?xml version="1.0" encoding="UTF-8" standalone="no"?>
<svg xmlns:ffdec="https://www.free-decompiler.com/flash" xmlns:xlink="http://www.w3.org/1999/xlink" ffdec:objectType="frame" height="13.0px" width="15.0px" xmlns="http://www.w3.org/2000/svg">
  <g transform="matrix(1.0, 0.0, 0.0, 1.0, 0.0, 0.0)">
    <use ffdec:characterId="100" height="13.0" transform="matrix(1.0, 0.0, 0.0, 1.0, 0.0, 0.0)" width="15.0" xlink:href="#shape0"/>
  </g>
  <defs>
    <g id="shape0" transform="matrix(1.0, 0.0, 0.0, 1.0, 0.0, 0.0)">
      <path d="M14.35 0.75 Q14.85 1.4 14.95 2.65 L15.0 4.85 14.95 7.0 Q14.8 8.4 14.2 8.9 L10.4 11.15 Q7.1 12.9 6.4 13.0 5.7 13.0 6.7 11.35 L7.55 9.7 Q1.05 9.7 0.55 8.5 L0.25 7.65 0.0 6.85 0.0 2.8 0.25 2.05 Q0.1 0.7 1.45 0.3 L3.7 0.0 11.4 0.0 12.95 0.15 Q14.05 0.2 14.35 0.75" fill="url(#gradient0)" fill-rule="evenodd" stroke="none"/>
    </g>
    <linearGradient gradientTransform="matrix(0.0, 0.0079, -0.0079, 0.0, 7.5, 6.5)" gradientUnits="userSpaceOnUse" id="gradient0" spreadMethod="pad" x1="-819.2" x2="819.2">
      <stop offset="0.0" stop-color="#757575"/>
      <stop offset="0.24705882352941178" stop-color="#666666"/>
      <stop offset="0.9607843137254902" stop-color="#2c2c2c"/>
    </linearGradient>
  </defs>
</svg>
