<?xml version="1.0" encoding="UTF-8" standalone="no"?>
<svg xmlns:ffdec="https://www.free-decompiler.com/flash" xmlns:xlink="http://www.w3.org/1999/xlink" ffdec:objectType="shape" height="15.9px" width="18.0px" xmlns="http://www.w3.org/2000/svg">
  <g transform="matrix(1.0, 0.0, 0.0, 1.0, -0.05, 1.95)">
    <path d="M0.55 2.0 L0.55 -0.9 Q0.55 -1.35 1.1 -1.4 L2.1 -1.45 6.2 -1.45 Q7.25 -1.45 7.25 -0.4 L6.95 0.3 6.2 0.6 2.6 0.6 2.6 2.0 0.55 2.0" fill="url(#gradient0)" fill-rule="evenodd" stroke="none"/>
    <path d="M15.6 2.0 L15.6 0.6 12.0 0.6 11.3 0.3 Q11.0 0.0 11.0 -0.4 11.0 -1.45 12.0 -1.45 L16.15 -1.45 17.1 -1.4 Q17.7 -1.35 17.7 -0.9 L17.7 2.0 15.6 2.0" fill="url(#gradient1)" fill-rule="evenodd" stroke="none"/>
    <path d="M17.7 9.8 L17.7 13.1 Q17.7 13.5 17.1 13.55 L16.5 13.6 11.95 13.6 Q11.0 13.55 11.0 12.6 11.0 12.15 11.3 11.85 11.6 11.55 12.0 11.55 L15.6 11.55 15.6 9.8 17.7 9.8" fill="url(#gradient2)" fill-rule="evenodd" stroke="none"/>
    <path d="M0.55 9.8 L2.6 9.8 2.6 11.55 6.2 11.55 Q6.65 11.55 6.95 11.85 L7.25 12.6 Q7.25 13.6 6.2 13.6 L1.75 13.6 1.1 13.55 Q0.55 13.5 0.55 13.1 L0.55 9.8" fill="url(#gradient3)" fill-rule="evenodd" stroke="none"/>
    <path d="M15.6 9.8 L15.6 9.65 15.6 8.55 Q15.6 8.1 15.95 7.8 16.25 7.5 16.65 7.5 17.7 7.5 17.7 8.55 L17.7 9.65 17.7 9.8 15.6 9.8" fill="url(#gradient4)" fill-rule="evenodd" stroke="none"/>
    <path d="M0.55 9.8 L0.55 9.65 0.55 8.55 Q0.55 7.5 1.6 7.5 2.0 7.5 2.3 7.8 L2.6 8.55 2.6 9.65 2.6 9.8 0.55 9.8" fill="url(#gradient5)" fill-rule="evenodd" stroke="none"/>
    <path d="M15.6 2.0 L17.7 2.0 17.7 2.1 17.7 3.7 Q17.7 4.7 16.65 4.7 16.25 4.7 15.95 4.4 15.6 4.1 15.6 3.7 L15.6 2.1 15.6 2.0" fill="url(#gradient6)" fill-rule="evenodd" stroke="none"/>
    <path d="M2.6 2.0 L2.6 2.1 2.6 3.7 2.3 4.4 1.6 4.7 Q0.55 4.7 0.55 3.7 L0.55 2.1 0.55 2.0 2.6 2.0" fill="url(#gradient7)" fill-rule="evenodd" stroke="none"/>
    <path d="M11.05 -0.45 Q11.05 -0.05 11.35 0.25 11.65 0.55 12.05 0.55 L15.55 0.55 15.55 3.55 Q15.55 3.95 15.85 4.25 16.15 4.55 16.55 4.55 17.55 4.55 17.55 3.55 L17.55 -0.95 Q17.55 -1.35 17.0 -1.4 L16.05 -1.45 12.05 -1.45 Q11.05 -1.45 11.05 -0.45 M6.05 -1.45 Q7.05 -1.45 7.05 -0.45 L6.75 0.25 6.05 0.55 2.55 0.55 2.55 3.55 2.25 4.25 1.55 4.55 Q0.55 4.55 0.55 3.55 L0.55 -0.95 Q0.55 -1.35 1.1 -1.4 L2.05 -1.45 6.05 -1.45 M12.05 11.45 L15.55 11.45 15.55 8.5 Q15.55 8.1 15.85 7.8 16.15 7.5 16.55 7.5 17.55 7.5 17.55 8.5 L17.55 12.95 Q17.55 13.35 17.0 13.4 L16.4 13.45 12.0 13.45 Q11.05 13.4 11.05 12.45 11.05 12.05 11.35 11.75 11.65 11.45 12.05 11.45 M0.55 8.5 L0.55 12.95 Q0.55 13.35 1.1 13.4 L1.7 13.45 6.05 13.45 Q7.05 13.45 7.05 12.45 L6.75 11.75 Q6.45 11.45 6.05 11.45 L2.55 11.45 2.55 8.5 2.25 7.8 Q1.95 7.5 1.55 7.5 0.55 7.5 0.55 8.5 Z" fill="none" stroke="#525252" stroke-linecap="butt" stroke-linejoin="miter-clip" stroke-miterlimit="10.0" stroke-width="1.0"/>
  </g>
  <defs>
    <linearGradient gradientTransform="matrix(0.0, 0.0131, -0.0132, 0.0, 9.25, 9.6)" gradientUnits="userSpaceOnUse" id="gradient0" spreadMethod="pad" x1="-819.2" x2="819.2">
      <stop offset="0.0" stop-color="#727272"/>
      <stop offset="1.0" stop-color="#191919"/>
    </linearGradient>
    <linearGradient gradientTransform="matrix(0.0, 0.0131, -0.0132, 0.0, 8.5, 9.6)" gradientUnits="userSpaceOnUse" id="gradient1" spreadMethod="pad" x1="-819.2" x2="819.2">
      <stop offset="0.0" stop-color="#727272"/>
      <stop offset="1.0" stop-color="#191919"/>
    </linearGradient>
    <linearGradient gradientTransform="matrix(0.0, 0.0131, -0.0132, 0.0, 8.5, 8.65)" gradientUnits="userSpaceOnUse" id="gradient2" spreadMethod="pad" x1="-819.2" x2="819.2">
      <stop offset="0.0" stop-color="#727272"/>
      <stop offset="1.0" stop-color="#191919"/>
    </linearGradient>
    <linearGradient gradientTransform="matrix(0.0, 0.0131, -0.0132, 0.0, 9.25, 8.65)" gradientUnits="userSpaceOnUse" id="gradient3" spreadMethod="pad" x1="-819.2" x2="819.2">
      <stop offset="0.0" stop-color="#727272"/>
      <stop offset="1.0" stop-color="#191919"/>
    </linearGradient>
    <linearGradient gradientTransform="matrix(0.0, 0.0131, -0.0132, 0.0, 8.5, 8.8)" gradientUnits="userSpaceOnUse" id="gradient4" spreadMethod="pad" x1="-819.2" x2="819.2">
      <stop offset="0.0" stop-color="#727272"/>
      <stop offset="1.0" stop-color="#191919"/>
    </linearGradient>
    <linearGradient gradientTransform="matrix(0.0, 0.0131, -0.0132, 0.0, 9.25, 8.8)" gradientUnits="userSpaceOnUse" id="gradient5" spreadMethod="pad" x1="-819.2" x2="819.2">
      <stop offset="0.0" stop-color="#727272"/>
      <stop offset="1.0" stop-color="#191919"/>
    </linearGradient>
    <linearGradient gradientTransform="matrix(0.0, 0.0131, -0.0132, 0.0, 8.5, 9.5)" gradientUnits="userSpaceOnUse" id="gradient6" spreadMethod="pad" x1="-819.2" x2="819.2">
      <stop offset="0.0" stop-color="#727272"/>
      <stop offset="1.0" stop-color="#191919"/>
    </linearGradient>
    <linearGradient gradientTransform="matrix(0.0, 0.0131, -0.0132, 0.0, 9.25, 9.5)" gradientUnits="userSpaceOnUse" id="gradient7" spreadMethod="pad" x1="-819.2" x2="819.2">
      <stop offset="0.0" stop-color="#727272"/>
      <stop offset="1.0" stop-color="#191919"/>
    </linearGradient>
  </defs>
</svg>
