<?xml version="1.0" encoding="UTF-8" standalone="no"?>
<svg xmlns:ffdec="https://www.free-decompiler.com/flash" xmlns:xlink="http://www.w3.org/1999/xlink" ffdec:objectType="shape" height="13.25px" width="13.2px" xmlns="http://www.w3.org/2000/svg">
  <g transform="matrix(1.0, 0.0, 0.0, 1.0, -3.95, -2.75)">
    <path d="M10.1 11.45 L9.8 11.75 9.5 11.95 9.15 12.05 8.75 11.9 8.4 11.65 8.25 11.5 8.0 11.15 7.9 10.8 7.95 10.4 8.15 10.1 8.45 9.8 7.85 9.9 7.4 10.3 5.6 12.05 5.45 12.35 5.3 12.95 5.4 13.55 5.55 13.9 6.0 14.35 6.35 14.5 6.95 14.6 7.6 14.5 8.1 14.05 9.65 12.55 10.0 12.05 10.1 11.45 M12.9 7.15 L13.1 7.55 13.25 7.9 13.2 8.25 12.95 8.6 12.6 8.95 13.2 8.85 13.7 8.45 15.2 6.95 15.65 6.4 15.75 5.8 15.65 5.2 15.25 4.6 14.7 4.25 14.1 4.15 13.5 4.25 13.2 4.45 11.45 6.2 11.05 6.7 10.95 7.3 11.3 6.95 11.65 6.7 12.0 6.65 12.35 6.8 12.75 7.0 12.9 7.15 M14.05 9.8 L13.5 10.25 12.85 10.4 12.15 10.4 11.4 10.15 11.35 10.25 11.6 10.95 11.55 11.7 11.4 12.35 10.95 12.9 8.55 15.35 7.7 15.9 6.9 16.0 6.4 15.95 5.6 15.65 4.25 14.3 3.95 13.5 3.95 12.55 4.2 11.75 7.0 8.95 7.55 8.5 8.2 8.35 8.95 8.3 9.7 8.6 9.75 8.5 9.5 7.75 9.5 7.05 9.65 6.4 10.1 5.85 12.9 3.05 13.7 2.75 14.2 2.75 15.0 2.85 15.75 3.4 16.5 4.15 17.0 4.9 17.15 5.7 17.0 6.6 16.5 7.35 14.05 9.8" fill="#686868" fill-opacity="0.9019608" fill-rule="evenodd" stroke="none"/>
  </g>
</svg>
