<?xml version="1.0" encoding="UTF-8" standalone="no"?>
<svg xmlns:ffdec="https://www.free-decompiler.com/flash" xmlns:xlink="http://www.w3.org/1999/xlink" ffdec:objectType="shape" height="15.0px" width="18.0px" xmlns="http://www.w3.org/2000/svg">
  <g transform="matrix(1.0, 0.0, 0.0, 1.0, -0.05, 1.0)">
    <path d="M3.05 -0.5 L15.05 -0.5 Q17.55 -0.5 17.55 2.0 L17.55 11.0 Q17.55 13.5 15.05 13.5 L8.05 13.5 0.55 6.05 0.55 2.0 Q0.55 -0.5 3.05 -0.5" fill="url(#gradient0)" fill-rule="evenodd" stroke="none"/>
    <path d="M3.6 7.0 Q5.8 7.0 6.45 7.6 7.05 8.2 7.05 10.4 L7.05 12.0 2.05 7.0 3.6 7.0" fill="#c8c8c8" fill-rule="evenodd" stroke="none"/>
    <path d="M3.05 -0.5 Q0.55 -0.5 0.55 2.0 L0.55 6.05 8.05 13.5 15.05 13.5 Q17.55 13.5 17.55 11.0 L17.55 2.0 Q17.55 -0.5 15.05 -0.5 L3.05 -0.5 Z" fill="none" stroke="#525252" stroke-linecap="butt" stroke-linejoin="miter-clip" stroke-miterlimit="10.0" stroke-width="1.0"/>
    <path d="M3.6 6.0 Q6.0 6.0 7.05 7.0 8.05 8.0 8.05 10.4 L8.05 14.0 7.05 13.0 7.05 10.4 Q7.05 8.4 6.3 7.7 5.6 7.0 3.6 7.0 L1.05 7.0 0.05 6.0 3.6 6.0" fill="#333333" fill-rule="evenodd" stroke="none"/>
  </g>
  <defs>
    <linearGradient gradientTransform="matrix(0.0, 0.0085, -0.0085, 0.0, 9.05, 6.5)" gradientUnits="userSpaceOnUse" id="gradient0" spreadMethod="pad" x1="-819.2" x2="819.2">
      <stop offset="0.0" stop-color="#727272"/>
      <stop offset="1.0" stop-color="#191919"/>
    </linearGradient>
  </defs>
</svg>
